# xmcd
#
# Track frame offsets:
#	150
#	19569
#	37904
#	58086
#
# Disc length: 1034 seconds
#
# Revision: 1
# Processed by: cddbd v1.5PL3 Copyright (c) Steve Scherf et al.
# Submitted via: EasyCDDAExtractor 7.0.0.1
#
DISCID=26040804
DTITLE=BEiJA - i schicke dir ä ängu
DYEAR=2004
DGENRE=Pop/Funk
TTITLE0=i schicke dir ä ängu (pop)
TTITLE1=i schicke dir ä ängu reggae
TTITLE2=i schicke dir ä ängu accoustic
TTITLE3=i'm sending you an angel
EXTD=YEAR: 1993 ID3G: 13
EXTT0=
EXTT1=
EXTT2=
EXTT3=
PLAYORDER=
